<?xml version="1.0" encoding="UTF-8" standalone="no"?>
<!DOCTYPE svg PUBLIC "-//W3C//DTD SVG 1.1//EN"
 "http://www.w3.org/Graphics/SVG/1.1/DTD/svg11.dtd">
<!-- Generated by graphviz version 2.40.1 (20161225.0304)
 -->
<!-- Title: dependencies Pages: 1 -->
<svg width="1529pt" height="284pt"
 viewBox="0.00 0.00 1529.00 284.00" xmlns="http://www.w3.org/2000/svg" xmlns:xlink="http://www.w3.org/1999/xlink">
<g id="graph0" class="graph" transform="scale(1 1) rotate(0) translate(4 280)">
<title>dependencies</title>
<polygon fill="#ffffff" stroke="transparent" points="-4,4 -4,-280 1525,-280 1525,4 -4,4"/>
<text text-anchor="start" x="739.5091" y="-42.4" font-family="sans-serif" font-weight="bold" font-size="14.00" fill="#000000">Legend</text>
<polygon fill="#ffffb3" stroke="transparent" points="526.5,-10 526.5,-30 546.5,-30 546.5,-10 526.5,-10"/>
<text text-anchor="start" x="550.129" y="-15.4" font-family="sans-serif" font-size="14.00" fill="#000000"> &#160;Declarations</text>
<polygon fill="#8dd3c7" stroke="transparent" points="639.5,-10 639.5,-30 659.5,-30 659.5,-10 639.5,-10"/>
<text text-anchor="start" x="663.2251" y="-15.4" font-family="sans-serif" font-size="14.00" fill="#000000"> &#160;Module</text>
<polygon fill="#80b1d3" stroke="transparent" points="725.5,-10 725.5,-30 745.5,-30 745.5,-10 725.5,-10"/>
<text text-anchor="start" x="749.2812" y="-15.4" font-family="sans-serif" font-size="14.00" fill="#000000"> &#160;Bootstrap</text>
<polygon fill="#fdb462" stroke="transparent" points="822.5,-10 822.5,-30 842.5,-30 842.5,-10 822.5,-10"/>
<text text-anchor="start" x="846.1732" y="-15.4" font-family="sans-serif" font-size="14.00" fill="#000000"> &#160;Providers</text>
<polygon fill="#fb8072" stroke="transparent" points="918.5,-10 918.5,-30 938.5,-30 938.5,-10 918.5,-10"/>
<text text-anchor="start" x="942.2258" y="-15.4" font-family="sans-serif" font-size="14.00" fill="#000000"> &#160;Exports</text>
<g id="clust1" class="cluster">
<title>cluster_AppModule</title>
<polygon fill="none" stroke="#000000" stroke-dasharray="1,5" points="8,-70 8,-268 1513,-268 1513,-70 8,-70"/>
</g>
<g id="clust2" class="cluster">
<title>cluster_AppModule_declarations</title>
<polygon fill="none" stroke="#000000" points="541,-78 541,-130 1505,-130 1505,-78 541,-78"/>
</g>
<g id="clust9" class="cluster">
<title>cluster_AppModule_imports</title>
<polygon fill="none" stroke="#000000" points="264,-78 264,-130 533,-130 533,-78 264,-78"/>
</g>
<g id="clust11" class="cluster">
<title>cluster_AppModule_bootstrap</title>
<polygon fill="none" stroke="#000000" points="708,-208 708,-260 832,-260 832,-208 708,-208"/>
</g>
<g id="clust12" class="cluster">
<title>cluster_AppModule_providers</title>
<polygon fill="none" stroke="#000000" points="16,-78 16,-130 256,-130 256,-78 16,-78"/>
</g>
<!-- AppComponent -->
<g id="node1" class="node">
<title>AppComponent</title>
<polygon fill="#ffffb3" stroke="#000000" points="1496.9399,-122 1391.0601,-122 1391.0601,-86 1496.9399,-86 1496.9399,-122"/>
<text text-anchor="middle" x="1444" y="-99.8" font-family="Times,serif" font-size="14.00" fill="#000000">AppComponent</text>
</g>
<!-- AppModule -->
<g id="node7" class="node">
<title>AppModule</title>
<polygon fill="#8dd3c7" stroke="#000000" points="811.6571,-187 808.6571,-191 787.6571,-191 784.6571,-187 728.3429,-187 728.3429,-151 811.6571,-151 811.6571,-187"/>
<text text-anchor="middle" x="770" y="-164.8" font-family="Times,serif" font-size="14.00" fill="#000000">AppModule</text>
</g>
<!-- AppComponent&#45;&gt;AppModule -->
<g id="edge1" class="edge">
<title>AppComponent&#45;&gt;AppModule</title>
<path fill="none" stroke="#000000" d="M1444,-122.0109C1444,-144.4852 1444,-180 1444,-180 1444,-180 821.9071,-180 821.9071,-180"/>
<polygon fill="#000000" stroke="#000000" points="821.9071,-176.5001 811.9071,-180 821.907,-183.5001 821.9071,-176.5001"/>
</g>
<!-- CrearPostulanteComponent -->
<g id="node2" class="node">
<title>CrearPostulanteComponent</title>
<polygon fill="#ffffb3" stroke="#000000" points="1373.2478,-122 1202.7522,-122 1202.7522,-86 1373.2478,-86 1373.2478,-122"/>
<text text-anchor="middle" x="1288" y="-99.8" font-family="Times,serif" font-size="14.00" fill="#000000">CrearPostulanteComponent</text>
</g>
<!-- CrearPostulanteComponent&#45;&gt;AppModule -->
<g id="edge2" class="edge">
<title>CrearPostulanteComponent&#45;&gt;AppModule</title>
<path fill="none" stroke="#000000" d="M1288,-122.1289C1288,-142.5724 1288,-173 1288,-173 1288,-173 821.9513,-173 821.9513,-173"/>
<polygon fill="#000000" stroke="#000000" points="821.9514,-169.5001 811.9513,-173 821.9513,-176.5001 821.9514,-169.5001"/>
</g>
<!-- EditarPostulanteComponent -->
<g id="node3" class="node">
<title>EditarPostulanteComponent</title>
<polygon fill="#ffffb3" stroke="#000000" points="1184.8696,-122 1011.1304,-122 1011.1304,-86 1184.8696,-86 1184.8696,-122"/>
<text text-anchor="middle" x="1098" y="-99.8" font-family="Times,serif" font-size="14.00" fill="#000000">EditarPostulanteComponent</text>
</g>
<!-- EditarPostulanteComponent&#45;&gt;AppModule -->
<g id="edge3" class="edge">
<title>EditarPostulanteComponent&#45;&gt;AppModule</title>
<path fill="none" stroke="#000000" d="M1098,-122.2667C1098,-140.5552 1098,-166 1098,-166 1098,-166 821.8746,-166 821.8746,-166"/>
<polygon fill="#000000" stroke="#000000" points="821.8746,-162.5001 811.8746,-166 821.8746,-169.5001 821.8746,-162.5001"/>
</g>
<!-- HomeComponent -->
<g id="node4" class="node">
<title>HomeComponent</title>
<polygon fill="#ffffb3" stroke="#000000" points="992.5451,-122 877.4549,-122 877.4549,-86 992.5451,-86 992.5451,-122"/>
<text text-anchor="middle" x="935" y="-99.8" font-family="Times,serif" font-size="14.00" fill="#000000">HomeComponent</text>
</g>
<!-- HomeComponent&#45;&gt;AppModule -->
<g id="edge4" class="edge">
<title>HomeComponent&#45;&gt;AppModule</title>
<path fill="none" stroke="#000000" d="M935,-122.0091C935,-138.0494 935,-159 935,-159 935,-159 822.0634,-159 822.0634,-159"/>
<polygon fill="#000000" stroke="#000000" points="822.0634,-155.5001 812.0634,-159 822.0634,-162.5001 822.0634,-155.5001"/>
</g>
<!-- ListarPostulantesComponent -->
<g id="node5" class="node">
<title>ListarPostulantesComponent</title>
<polygon fill="#ffffb3" stroke="#000000" points="858.759,-122 681.241,-122 681.241,-86 858.759,-86 858.759,-122"/>
<text text-anchor="middle" x="770" y="-99.8" font-family="Times,serif" font-size="14.00" fill="#000000">ListarPostulantesComponent</text>
</g>
<!-- ListarPostulantesComponent&#45;&gt;AppModule -->
<g id="edge5" class="edge">
<title>ListarPostulantesComponent&#45;&gt;AppModule</title>
<path fill="none" stroke="#000000" d="M770,-122.1061C770,-122.1061 770,-140.991 770,-140.991"/>
<polygon fill="#000000" stroke="#000000" points="766.5001,-140.9909 770,-150.991 773.5001,-140.991 766.5001,-140.9909"/>
</g>
<!-- LoginComponent -->
<g id="node6" class="node">
<title>LoginComponent</title>
<polygon fill="#ffffb3" stroke="#000000" points="663.2758,-122 548.7242,-122 548.7242,-86 663.2758,-86 663.2758,-122"/>
<text text-anchor="middle" x="606" y="-99.8" font-family="Times,serif" font-size="14.00" fill="#000000">LoginComponent</text>
</g>
<!-- LoginComponent&#45;&gt;AppModule -->
<g id="edge6" class="edge">
<title>LoginComponent&#45;&gt;AppModule</title>
<path fill="none" stroke="#000000" d="M606,-122.0091C606,-138.0494 606,-159 606,-159 606,-159 718.1915,-159 718.1915,-159"/>
<polygon fill="#000000" stroke="#000000" points="718.1916,-162.5001 728.1915,-159 718.1915,-155.5001 718.1916,-162.5001"/>
</g>
<!-- AppComponent  -->
<g id="node10" class="node">
<title>AppComponent </title>
<polygon fill="#80b1d3" stroke="#000000" points="824.439,-252 715.561,-252 715.561,-216 824.439,-216 824.439,-252"/>
<text text-anchor="middle" x="770" y="-229.8" font-family="Times,serif" font-size="14.00" fill="#000000">AppComponent </text>
</g>
<!-- AppModule&#45;&gt;AppComponent  -->
<g id="edge9" class="edge">
<title>AppModule&#45;&gt;AppComponent </title>
<path fill="none" stroke="#000000" stroke-dasharray="1,5" d="M770,-187.1061C770,-187.1061 770,-205.991 770,-205.991"/>
<polygon fill="#000000" stroke="#000000" points="766.5001,-205.9909 770,-215.991 773.5001,-205.991 766.5001,-205.9909"/>
</g>
<!-- AppRoutingModule -->
<g id="node8" class="node">
<title>AppRoutingModule</title>
<polygon fill="#8dd3c7" stroke="#000000" points="525.2744,-122 522.2744,-126 501.2744,-126 498.2744,-122 396.7256,-122 396.7256,-86 525.2744,-86 525.2744,-122"/>
<text text-anchor="middle" x="461" y="-99.8" font-family="Times,serif" font-size="14.00" fill="#000000">AppRoutingModule</text>
</g>
<!-- AppRoutingModule&#45;&gt;AppModule -->
<g id="edge7" class="edge">
<title>AppRoutingModule&#45;&gt;AppModule</title>
<path fill="none" stroke="#000000" d="M461,-122.2667C461,-140.5552 461,-166 461,-166 461,-166 718.3269,-166 718.3269,-166"/>
<polygon fill="#000000" stroke="#000000" points="718.3269,-169.5001 728.3269,-166 718.3269,-162.5001 718.3269,-169.5001"/>
</g>
<!-- MaterialModule -->
<g id="node9" class="node">
<title>MaterialModule</title>
<polygon fill="#8dd3c7" stroke="#000000" points="378.4706,-122 375.4706,-126 354.4706,-126 351.4706,-122 271.5294,-122 271.5294,-86 378.4706,-86 378.4706,-122"/>
<text text-anchor="middle" x="325" y="-99.8" font-family="Times,serif" font-size="14.00" fill="#000000">MaterialModule</text>
</g>
<!-- MaterialModule&#45;&gt;AppModule -->
<g id="edge8" class="edge">
<title>MaterialModule&#45;&gt;AppModule</title>
<path fill="none" stroke="#000000" d="M325,-122.1289C325,-142.5724 325,-173 325,-173 325,-173 718.1355,-173 718.1355,-173"/>
<polygon fill="#000000" stroke="#000000" points="718.1355,-176.5001 728.1355,-173 718.1354,-169.5001 718.1355,-176.5001"/>
</g>
<!-- AgregarPostulanteService -->
<g id="node11" class="node">
<title>AgregarPostulanteService</title>
<ellipse fill="#fdb462" stroke="#000000" cx="136" cy="-104" rx="111.7141" ry="18"/>
<text text-anchor="middle" x="136" y="-99.8" font-family="Times,serif" font-size="14.00" fill="#000000">AgregarPostulanteService</text>
</g>
<!-- AgregarPostulanteService&#45;&gt;AppModule -->
<g id="edge10" class="edge">
<title>AgregarPostulanteService&#45;&gt;AppModule</title>
<path fill="none" stroke="#000000" d="M136,-122.0109C136,-144.4852 136,-180 136,-180 136,-180 717.9105,-180 717.9105,-180"/>
<polygon fill="#000000" stroke="#000000" points="717.9105,-183.5001 727.9105,-180 717.9105,-176.5001 717.9105,-183.5001"/>
</g>
</g>
</svg>
